<svg xmlns="http://www.w3.org/2000/svg"  viewBox="0 0 24 24" width="24px" height="24px"><path d="M21.75,5h-5.646L15.74,2.095C15.662,1.47,15.131,1,14.5,1h-5C8.869,1,8.338,1.47,8.26,2.095L7.896,5H2.25	C1.56,5,1,5.56,1,6.25S1.56,7.5,2.25,7.5h0.327l0.727,11.441C3.406,20.656,4.831,22,6.549,22h10.902	c1.718,0,3.143-1.344,3.243-3.054L21.423,7.5h0.327C22.44,7.5,23,6.94,23,6.25S22.44,5,21.75,5z M10.604,3.5h2.793L13.584,5h-3.168	L10.604,3.5z M9.809,17.997C9.778,17.999,9.748,18,9.718,18c-0.649,0-1.198-0.502-1.246-1.16l-0.469-6.5	C7.953,9.651,8.472,9.053,9.16,9.003c0.679-0.042,1.287,0.469,1.337,1.157l0.469,6.5C11.016,17.349,10.497,17.947,9.809,17.997z M15.528,16.84C15.48,17.498,14.932,18,14.282,18c-0.03,0-0.061-0.001-0.091-0.003c-0.688-0.05-1.207-0.648-1.157-1.337l0.469-6.5	c0.05-0.688,0.655-1.199,1.337-1.157c0.688,0.05,1.207,0.648,1.157,1.337L15.528,16.84z"/></svg>